
        <svg width="3194.432225622395" height="2310.937809659783" xmlns="http://www.w3.org/2000/svg" xmlns:xlink="http://www.w3.org/1999/xlink" version="1.1">
            <rect fill="#7ACCBE" width="3194.432225622395" height="2310.937809659783"/>
            <g transform="scale(9.721611281119758) translate(10, 10)">
                <g id="main_text" rel="mainfill" name="main_text" xmlns:name="mainText_mainfill" fill="#fff" transform="translate(-3.4679999351501465, 136.23299980163574)"><path d="M3.468 51 l0 -33.711 l22.032 0 l0 7.293 l-13.464 0 l0 5.814 l11.322 0 l0 7.293 l-11.322 0 l0 13.311 l-8.568 0 z M32.390100000000004 51 l0 -33.711 l12.954 0 c9.333 0 12.648 4.029 12.648 9.435 c0 5.049 -2.856 7.905 -5.967 9.384 c1.326 0.714 2.295 2.04 3.162 4.437 c0.714 2.04 1.071 3.978 4.743 3.825 l-1.479 6.936 c-8.058 1.02 -9.945 -4.182 -11.322 -7.905 c-1.428 -3.876 -1.989 -4.284 -4.845 -4.284 l-1.326 0 l0 11.883 l-8.568 0 z M45.140100000000004 24.48 l-4.182 0 l0 7.446 l4.182 0 c3.111 0 4.284 -1.938 4.284 -3.927 c0 -2.499 -1.428 -3.519 -4.284 -3.519 z M66.4122 51 l0 -33.711 l22.338 0 l0 7.293 l-13.77 0 l0 5.814 l11.067 0 l0 7.293 l-11.067 0 l0 6.018 l14.076 0 l0 7.293 l-22.644 0 z M96.7113 51 l0 -33.711 l11.22 0 l6.477 19.278 c0.255 0.816 0.816 2.652 1.377 4.692 c0.561 -2.091 1.071 -3.927 1.377 -4.794 l6.273 -19.176 l11.373 0 l0 33.711 l-8.313 0 l0 -12.903 c0 -2.499 0.153 -6.273 0.408 -9.843 c-1.122 3.468 -2.244 7.14 -3.06 9.486 l-4.539 13.26 l-7.14 0 l-4.743 -13.464 c-0.816 -2.295 -1.836 -5.508 -2.754 -8.619 c0.204 3.264 0.357 6.63 0.357 8.874 l0 13.209 l-8.313 0 z M140.3724 51 l12.597 -33.711 l6.834 0 l13.923 33.711 l-8.67 0 l-2.295 -5.661 l-12.24 0 l-1.989 5.661 l-8.16 0 z M154.9074 33.15 l-1.836 5.049 l6.783 0 l-2.04 -5.151 c-0.357 -0.867 -0.969 -2.601 -1.53 -4.386 c-0.561 1.887 -1.071 3.621 -1.377 4.488 z M178.62749999999997 51 l0 -33.711 l8.313 0 l9.333 13.719 c1.377 2.04 3.162 4.845 4.794 7.548 c-0.153 -3.009 -0.255 -6.273 -0.255 -8.721 l0 -12.546 l8.16 0 l0 33.711 l-8.364 0 l-10.404 -15.198 c-1.02 -1.479 -2.397 -3.774 -3.672 -6.069 c0.153 2.754 0.255 5.559 0.255 7.497 l0 13.77 l-8.16 0 z M239.6796 39.168 l7.803 2.193 c-0.969 5.865 -5.355 10.353 -14.331 10.353 c-11.832 0 -16.779 -7.752 -16.779 -17.85 c0 -10.863 5.865 -17.289 16.83 -17.289 c9.18 0 14.331 4.488 13.821 10.965 l-8.415 1.887 c0.204 -3.621 -1.071 -5.763 -5.61 -5.763 c-5.865 0 -7.599 3.417 -7.599 10.149 c0 7.446 2.295 10.812 7.548 10.812 c3.315 0 6.681 -1.428 6.732 -5.457 z M254.21969999999996 51 l0 -33.711 l22.338 0 l0 7.293 l-13.77 0 l0 5.814 l11.067 0 l0 7.293 l-11.067 0 l0 6.018 l14.076 0 l0 7.293 l-22.644 0 z M284.5188 51 l0 -33.711 l12.954 0 c9.333 0 12.648 4.029 12.648 9.435 c0 5.049 -2.856 7.905 -5.967 9.384 c1.326 0.714 2.295 2.04 3.162 4.437 c0.714 2.04 1.071 3.978 4.743 3.825 l-1.479 6.936 c-8.058 1.02 -9.945 -4.182 -11.322 -7.905 c-1.428 -3.876 -1.989 -4.284 -4.845 -4.284 l-1.326 0 l0 11.883 l-8.568 0 z M297.2688 24.48 l-4.182 0 l0 7.446 l4.182 0 c3.111 0 4.284 -1.938 4.284 -3.927 c0 -2.499 -1.428 -3.519 -4.284 -3.519 z"/></g><g id="slogan_text" rel="mainfill" name="slogan_text" xmlns:name="sloganText_mainfill" fill="#fff" transform="translate(67.07489731069654, 204.4662446975708)"><path d="M1.1655 12.48779625 q0 0.1772460938 -0.0751953125 0.34375 t-0.21484 0.2605 t-0.29004 0.093994 t-0.28735 -0.091309 t-0.21216 -0.25781 t-0.075195 -0.34912 l0 -5.5752 l-0.010742 0 q0 -0.7036132813 0.3732910156 -1.369628906 t1.0688 -1.0447 t1.4529 -0.37866 t1.4421 0.36792 t1.0662 1.0339 l0.016113 0.032227 q0.021484375 0.03759765625 0.03759765625 0.0751953125 q0.0751953125 0.1611328125 0.08056640625 0.34375 l0 0.010742 q0 0.1772460938 -0.0859375 0.3115234375 q-0.0859375 0.1450195313 -0.2202148438 0.2094726563 q-0.1020507813 0.04833984375 -0.21484375 0.04833984375 q-0.04296875 0 -0.0859375 -0.0107421875 q-0.1611328125 -0.021484375 -0.3034667969 -0.1396484375 t-0.21753 -0.28467 q-0.0107421875 -0.021484375 -0.01611328125 -0.04296875 q-0.2309570313 -0.3759765625 -0.6337890625 -0.5854492188 q-0.4135742188 -0.21484375 -0.8647460938 -0.21484375 q-0.4565429688 0 -0.8728027344 0.2202148438 t-0.64185 0.6123 q-0.21484375 0.3759765625 -0.2255859375 0.7734375 l0.010742 0 l0 1.4019 l1.9336 0 q0.171875 0 0.3383789063 0.0751953125 t0.2605 0.21484 t0.093994 0.29004 t-0.091309 0.28735 t-0.25781 0.21216 t-0.34375 0.075195 l-1.9336 0 l0 3.0508 z M11.090280900493426 5.38720625 q0.8325195313 0 1.616699219 0.5075683594 t1.23 1.4502 t0.4458 1.9739 q0 1.025878906 -0.4323730469 1.957763672 t-1.2166 1.4502 t-1.6436 0.51831 q-0.8486328125 0 -1.6328125 -0.5183105469 t-1.2166 -1.4502 t-0.43237 -1.9578 q0 -1.03125 0.4431152344 -1.973876953 t1.2273 -1.4502 t1.6113 -0.50757 z M10.045680900493426 6.86430625 q-0.5075683594 0.3544921875 -0.7976074219 1.012451172 t-0.29004 1.3777 q0 0.7143554688 0.2819824219 1.366943359 t0.79224 1.0125 t1.0581 0.35986 q0.55859375 0 1.068847656 -0.3598632813 t0.79224 -1.0125 t0.28198 -1.3669 q0 -0.7197265625 -0.2900390625 -1.377685547 t-0.80029 -1.0125 t-1.0527 -0.35449 q-0.537109375 0 -1.044677734 0.3544921875 z M17.80858289473685 12.48779625 q0 0.1772460938 -0.0751953125 0.34375 t-0.21484 0.2605 t-0.29004 0.093994 t-0.28735 -0.091309 t-0.21216 -0.25781 t-0.075195 -0.34912 l0 -6.3003 q0 -0.1826171875 0.0751953125 -0.3491210938 t0.21216 -0.25781 t0.28735 -0.091309 l2.3364 0 q0.7465820313 0.00537109375 1.428710938 0.365234375 q0.6821289063 0.3706054688 1.063476563 1.036621094 q0.0107421875 0.021484375 0.021484375 0.03759765625 l-0.0053711 0 q0.021484375 0.0322265625 0.03759765625 0.06982421875 q0.0751953125 0.1611328125 0.08056640625 0.34375 l0 0.010742 q0 0.1772460938 -0.08056640625 0.3115234375 q-0.0859375 0.1450195313 -0.2255859375 0.2094726563 q-0.1020507813 0.04833984375 -0.21484375 0.04833984375 q-0.04296875 0 -0.0859375 -0.0107421875 q-0.1611328125 -0.021484375 -0.30078125 -0.1396484375 t-0.22021 -0.28467 q-0.0107421875 -0.021484375 -0.01611328125 -0.04296875 q-0.2309570313 -0.3759765625 -0.6337890625 -0.5854492188 q-0.4135742188 -0.21484375 -0.8647460938 -0.21484375 q-0.4565429688 0 -0.8728027344 0.2202148438 t-0.64185 0.6123 t-0.22559 0.80566 l0 4.2056 z M29.178163795230276 7.20800625 q-0.171875 -0.1987304688 -0.3813476563 -0.34375 q-0.5102539063 -0.3544921875 -1.052734375 -0.3544921875 q-0.537109375 0 -1.044677734 0.3544921875 t-0.79761 1.0125 t-0.29004 1.3777 q0 0.666015625 0.2470703125 1.278320313 z M29.489663795230275 10.89260625 q0.05908203125 -0.0859375 0.1450195313 -0.1557617188 q0.1396484375 -0.1127929688 0.3061523438 -0.1396484375 q0.04296875 -0.00537109375 0.0859375 -0.00537109375 q0.1127929688 0 0.21484375 0.0537109375 q0.1450195313 0.06982421875 0.2255859375 0.21484375 q0.0751953125 0.1342773438 0.0751953125 0.3061523438 l0 0.021484 q-0.00537109375 0.1879882813 -0.08056640625 0.3491210938 q-0.021484375 0.04296875 -0.04833984375 0.08056640625 l0.010742 0.0053711 q-0.4028320313 0.6875 -1.036621094 1.101074219 q-0.7841796875 0.5209960938 -1.643554688 0.5209960938 q-0.8486328125 0 -1.6328125 -0.5183105469 t-1.2166 -1.4502 t-0.43237 -1.9578 q0 -1.03125 0.4431152344 -1.973876953 t1.2273 -1.4502 t1.6113 -0.50757 q0.8325195313 0 1.616699219 0.5048828125 q0.5747070313 0.3706054688 0.966796875 0.9775390625 l-0.0053711 0.0053711 q0.0322265625 0.04833984375 0.05908203125 0.0966796875 q0.06982421875 0.1557617188 0.0751953125 0.3276367188 l0 0.021484 q0 0.1611328125 -0.06982421875 0.2846679688 q-0.04833984375 0.08056640625 -0.1127929688 0.1396484375 l-3.7544 3.7598 q0.08056640625 0.06982421875 0.1665039063 0.12890625 q0.5102539063 0.3598632813 1.058105469 0.3598632813 q0.55859375 0 1.068847656 -0.3598632813 q0.4028320313 -0.2846679688 0.666015625 -0.751953125 z M35.7083962582237 13.18603515 q-0.7573242188 0 -1.442138672 -0.3679199219 t-1.0662 -1.0339 q-0.3706054688 -0.6499023438 -0.3813476563 -3.077636719 l0 -2.519 q0 -0.1772460938 0.0751953125 -0.34375 t0.21484 -0.2605 t0.29004 -0.093994 t0.28735 0.091309 t0.21216 0.25781 t0.075195 0.34912 l0 2.4868 q0 2.1484375 0.2282714844 2.537841797 t0.64185 0.60425 t0.86475 0.21484 l0.032227 0 q0.451171875 0 0.8647460938 -0.21484375 t0.64185 -0.60425 t0.22827 -2.5378 l0 -2.4868 q0 -0.1826171875 0.0751953125 -0.3491210938 t0.21216 -0.25781 t0.28735 -0.091309 t0.29004 0.093994 t0.21484 0.2605 t0.075195 0.34375 l0 2.519 q-0.0107421875 2.427734375 -0.3813476563 3.077636719 q-0.3813476563 0.666015625 -1.063476563 1.03125 t-1.4287 0.37061 l-0.04834 0 z M45.617102939967126 7.20800625 q-0.171875 -0.1987304688 -0.3813476563 -0.34375 q-0.5102539063 -0.3544921875 -1.052734375 -0.3544921875 q-0.537109375 0 -1.044677734 0.3544921875 t-0.79761 1.0125 t-0.29004 1.3777 q0 0.666015625 0.2470703125 1.278320313 z M45.92860293996712 10.89260625 q0.05908203125 -0.0859375 0.1450195313 -0.1557617188 q0.1396484375 -0.1127929688 0.3061523438 -0.1396484375 q0.04296875 -0.00537109375 0.0859375 -0.00537109375 q0.1127929688 0 0.21484375 0.0537109375 q0.1450195313 0.06982421875 0.2255859375 0.21484375 q0.0751953125 0.1342773438 0.0751953125 0.3061523438 l0 0.021484 q-0.00537109375 0.1879882813 -0.08056640625 0.3491210938 q-0.021484375 0.04296875 -0.04833984375 0.08056640625 l0.010742 0.0053711 q-0.4028320313 0.6875 -1.036621094 1.101074219 q-0.7841796875 0.5209960938 -1.643554688 0.5209960938 q-0.8486328125 0 -1.6328125 -0.5183105469 t-1.2166 -1.4502 t-0.43237 -1.9578 q0 -1.03125 0.4431152344 -1.973876953 t1.2273 -1.4502 t1.6113 -0.50757 q0.8325195313 0 1.616699219 0.5048828125 q0.5747070313 0.3706054688 0.966796875 0.9775390625 l-0.0053711 0.0053711 q0.0322265625 0.04833984375 0.05908203125 0.0966796875 q0.06982421875 0.1557617188 0.0751953125 0.3276367188 l0 0.021484 q0 0.1611328125 -0.06982421875 0.2846679688 q-0.04833984375 0.08056640625 -0.1127929688 0.1396484375 l-3.7544 3.7598 q0.08056640625 0.06982421875 0.1665039063 0.12890625 q0.5102539063 0.3598632813 1.058105469 0.3598632813 q0.55859375 0 1.068847656 -0.3598632813 q0.4028320313 -0.2846679688 0.666015625 -0.751953125 z M50.41253540296055 12.48779625 q0 0.1772460938 -0.0751953125 0.34375 t-0.21484 0.2605 t-0.29004 0.093994 t-0.28735 -0.091309 t-0.21216 -0.25781 t-0.075195 -0.34912 l0 -6.3003 q0 -0.1826171875 0.0751953125 -0.3491210938 t0.21216 -0.25781 t0.28735 -0.091309 l2.3364 0 q0.7465820313 0.00537109375 1.428710938 0.365234375 q0.6821289063 0.3706054688 1.063476563 1.036621094 q0.0107421875 0.021484375 0.021484375 0.03759765625 l-0.0053711 0 q0.021484375 0.0322265625 0.03759765625 0.06982421875 q0.0751953125 0.1611328125 0.08056640625 0.34375 l0 0.010742 q0 0.1772460938 -0.08056640625 0.3115234375 q-0.0859375 0.1450195313 -0.2255859375 0.2094726563 q-0.1020507813 0.04833984375 -0.21484375 0.04833984375 q-0.04296875 0 -0.0859375 -0.0107421875 q-0.1611328125 -0.021484375 -0.30078125 -0.1396484375 t-0.22021 -0.28467 q-0.0107421875 -0.021484375 -0.01611328125 -0.04296875 q-0.2309570313 -0.3759765625 -0.6337890625 -0.5854492188 q-0.4135742188 -0.21484375 -0.8647460938 -0.21484375 q-0.4565429688 0 -0.8728027344 0.2202148438 t-0.64185 0.6123 t-0.22559 0.80566 l0 4.2056 z  M61.8885417351974 12.48779625 q0 0.1772460938 -0.0751953125 0.34375 t-0.21484 0.2605 t-0.29004 0.093994 t-0.28735 -0.091309 t-0.21216 -0.25781 t-0.075195 -0.34912 l0 -5.5752 l-0.010742 0 q0 -0.7036132813 0.3732910156 -1.369628906 t1.0688 -1.0447 t1.4529 -0.37866 t1.4421 0.36792 t1.0662 1.0339 l0.016113 0.032227 q0.021484375 0.03759765625 0.03759765625 0.0751953125 q0.0751953125 0.1611328125 0.08056640625 0.34375 l0 0.010742 q0 0.1772460938 -0.0859375 0.3115234375 q-0.0859375 0.1450195313 -0.2202148438 0.2094726563 q-0.1020507813 0.04833984375 -0.21484375 0.04833984375 q-0.04296875 0 -0.0859375 -0.0107421875 q-0.1611328125 -0.021484375 -0.3034667969 -0.1396484375 t-0.21753 -0.28467 q-0.0107421875 -0.021484375 -0.01611328125 -0.04296875 q-0.2309570313 -0.3759765625 -0.6337890625 -0.5854492188 q-0.4135742188 -0.21484375 -0.8647460938 -0.21484375 q-0.4565429688 0 -0.8728027344 0.2202148438 t-0.64185 0.6123 q-0.21484375 0.3759765625 -0.2255859375 0.7734375 l0.010742 0 l0 1.4019 l1.9336 0 q0.171875 0 0.3383789063 0.0751953125 t0.2605 0.21484 t0.093994 0.29004 t-0.091309 0.28735 t-0.25781 0.21216 t-0.34375 0.075195 l-1.9336 0 l0 3.0508 z M69.68642263569082 12.48779625 q0 0.1772460938 -0.0751953125 0.34375 t-0.21484 0.2605 t-0.29004 0.093994 t-0.28735 -0.091309 t-0.21216 -0.25781 t-0.075195 -0.34912 l0 -6.3003 q0 -0.1826171875 0.0751953125 -0.3491210938 t0.21216 -0.25781 t0.28735 -0.091309 l2.3364 0 q0.7465820313 0.00537109375 1.428710938 0.365234375 q0.6821289063 0.3706054688 1.063476563 1.036621094 q0.0107421875 0.021484375 0.021484375 0.03759765625 l-0.0053711 0 q0.021484375 0.0322265625 0.03759765625 0.06982421875 q0.0751953125 0.1611328125 0.08056640625 0.34375 l0 0.010742 q0 0.1772460938 -0.08056640625 0.3115234375 q-0.0859375 0.1450195313 -0.2255859375 0.2094726563 q-0.1020507813 0.04833984375 -0.21484375 0.04833984375 q-0.04296875 0 -0.0859375 -0.0107421875 q-0.1611328125 -0.021484375 -0.30078125 -0.1396484375 t-0.22021 -0.28467 q-0.0107421875 -0.021484375 -0.01611328125 -0.04296875 q-0.2309570313 -0.3759765625 -0.6337890625 -0.5854492188 q-0.4135742188 -0.21484375 -0.8647460938 -0.21484375 q-0.4565429688 0 -0.8728027344 0.2202148438 t-0.64185 0.6123 t-0.22559 0.80566 l0 4.2056 z M81.05600353618425 7.20800625 q-0.171875 -0.1987304688 -0.3813476563 -0.34375 q-0.5102539063 -0.3544921875 -1.052734375 -0.3544921875 q-0.537109375 0 -1.044677734 0.3544921875 t-0.79761 1.0125 t-0.29004 1.3777 q0 0.666015625 0.2470703125 1.278320313 z M81.36750353618424 10.89260625 q0.05908203125 -0.0859375 0.1450195313 -0.1557617188 q0.1396484375 -0.1127929688 0.3061523438 -0.1396484375 q0.04296875 -0.00537109375 0.0859375 -0.00537109375 q0.1127929688 0 0.21484375 0.0537109375 q0.1450195313 0.06982421875 0.2255859375 0.21484375 q0.0751953125 0.1342773438 0.0751953125 0.3061523438 l0 0.021484 q-0.00537109375 0.1879882813 -0.08056640625 0.3491210938 q-0.021484375 0.04296875 -0.04833984375 0.08056640625 l0.010742 0.0053711 q-0.4028320313 0.6875 -1.036621094 1.101074219 q-0.7841796875 0.5209960938 -1.643554688 0.5209960938 q-0.8486328125 0 -1.6328125 -0.5183105469 t-1.2166 -1.4502 t-0.43237 -1.9578 q0 -1.03125 0.4431152344 -1.973876953 t1.2273 -1.4502 t1.6113 -0.50757 q0.8325195313 0 1.616699219 0.5048828125 q0.5747070313 0.3706054688 0.966796875 0.9775390625 l-0.0053711 0.0053711 q0.0322265625 0.04833984375 0.05908203125 0.0966796875 q0.06982421875 0.1557617188 0.0751953125 0.3276367188 l0 0.021484 q0 0.1611328125 -0.06982421875 0.2846679688 q-0.04833984375 0.08056640625 -0.1127929688 0.1396484375 l-3.7544 3.7598 q0.08056640625 0.06982421875 0.1665039063 0.12890625 q0.5102539063 0.3598632813 1.058105469 0.3598632813 q0.55859375 0 1.068847656 -0.3598632813 q0.4028320313 -0.2846679688 0.666015625 -0.751953125 z M89.41243599917767 7.20800625 q-0.171875 -0.1987304688 -0.3813476563 -0.34375 q-0.5102539063 -0.3544921875 -1.052734375 -0.3544921875 q-0.537109375 0 -1.044677734 0.3544921875 t-0.79761 1.0125 t-0.29004 1.3777 q0 0.666015625 0.2470703125 1.278320313 z M89.72393599917767 10.89260625 q0.05908203125 -0.0859375 0.1450195313 -0.1557617188 q0.1396484375 -0.1127929688 0.3061523438 -0.1396484375 q0.04296875 -0.00537109375 0.0859375 -0.00537109375 q0.1127929688 0 0.21484375 0.0537109375 q0.1450195313 0.06982421875 0.2255859375 0.21484375 q0.0751953125 0.1342773438 0.0751953125 0.3061523438 l0 0.021484 q-0.00537109375 0.1879882813 -0.08056640625 0.3491210938 q-0.021484375 0.04296875 -0.04833984375 0.08056640625 l0.010742 0.0053711 q-0.4028320313 0.6875 -1.036621094 1.101074219 q-0.7841796875 0.5209960938 -1.643554688 0.5209960938 q-0.8486328125 0 -1.6328125 -0.5183105469 t-1.2166 -1.4502 t-0.43237 -1.9578 q0 -1.03125 0.4431152344 -1.973876953 t1.2273 -1.4502 t1.6113 -0.50757 q0.8325195313 0 1.616699219 0.5048828125 q0.5747070313 0.3706054688 0.966796875 0.9775390625 l-0.0053711 0.0053711 q0.0322265625 0.04833984375 0.05908203125 0.0966796875 q0.06982421875 0.1557617188 0.0751953125 0.3276367188 l0 0.021484 q0 0.1611328125 -0.06982421875 0.2846679688 q-0.04833984375 0.08056640625 -0.1127929688 0.1396484375 l-3.7544 3.7598 q0.08056640625 0.06982421875 0.1665039063 0.12890625 q0.5102539063 0.3598632813 1.058105469 0.3598632813 q0.55859375 0 1.068847656 -0.3598632813 q0.4028320313 -0.2846679688 0.666015625 -0.751953125 z M94.20786846217109 12.48779625 q0 0.1772460938 -0.0751953125 0.34375 t-0.21484 0.2605 t-0.29004 0.093994 t-0.28735 -0.091309 t-0.21216 -0.25781 t-0.075195 -0.34912 l0 -7.6968 q0 -0.1826171875 0.0751953125 -0.3491210938 t0.21216 -0.25781 t0.28735 -0.091309 q0.1557617188 0 0.2927246094 0.09399414063 t0.21216 0.2605 t0.075195 0.34375 l0 7.6968 z M98.71593686266452 6.86430625 q-0.5075683594 0.3544921875 -0.7976074219 1.012451172 t-0.29004 1.3777 q0 0.7143554688 0.2819824219 1.366943359 t0.79224 1.0125 t1.0581 0.35986 q0.55859375 0 1.068847656 -0.3598632813 t0.79224 -1.0125 t0.28198 -1.3669 q0 -0.7197265625 -0.2900390625 -1.377685547 t-0.80029 -1.0125 t-1.0527 -0.35449 q-0.537109375 0 -1.044677734 0.3544921875 z M103.04763686266452 9.03420625 l0.0053711 0 l0 3.4482 q0 0.1826171875 -0.07788085938 0.3491210938 t-0.21216 0.25781 q-0.1396484375 0.09130859375 -0.2846679688 0.09130859375 l-2.7446 0 q-0.8325195313 -0.0107421875 -1.605957031 -0.5209960938 q-0.7841796875 -0.515625 -1.216552734 -1.447509766 t-0.43237 -1.9578 q0 -1.03125 0.4431152344 -1.973876953 t1.2273 -1.4502 t1.6113 -0.50757 q0.8325195313 0 1.616699219 0.5075683594 t1.23 1.4475 q0.3974609375 0.8432617188 0.4404296875 1.756347656 z M105.32403885690795 6.18750625 q0 -0.1826171875 0.0751953125 -0.3491210938 t0.21216 -0.25781 t0.28735 -0.091309 l2.3203 0 q0.7573242188 0 1.442138672 0.3679199219 t1.0662 1.0339 q0.3706054688 0.6499023438 0.3813476563 1.358886719 l0 4.2378 q0 0.1772460938 -0.0751953125 0.34375 t-0.21484 0.2605 t-0.29004 0.093994 t-0.28735 -0.091309 t-0.21216 -0.25781 t-0.075195 -0.34912 l0 -4.2056 q0 -0.4296875 -0.2282714844 -0.8190917969 t-0.64185 -0.60425 t-0.86475 -0.21484 q-0.4565429688 0 -0.8728027344 0.2202148438 t-0.64185 0.6123 t-0.22559 0.80566 l0 4.2056 q0 0.1772460938 -0.0751953125 0.34375 t-0.21484 0.2605 t-0.29004 0.093994 t-0.28735 -0.091309 t-0.21216 -0.25781 t-0.075195 -0.34912 l0 -6.3003 z M118.40699006990137 10.89260625 q0.05908203125 -0.0859375 0.1450195313 -0.1557617188 q0.1396484375 -0.1127929688 0.3061523438 -0.1396484375 q0.04296875 -0.00537109375 0.0859375 -0.00537109375 q0.1127929688 0 0.21484375 0.0537109375 q0.1450195313 0.06982421875 0.2255859375 0.21484375 q0.0751953125 0.1342773438 0.0751953125 0.3061523438 l0 0.021484 q-0.00537109375 0.1879882813 -0.08056640625 0.3491210938 q-0.021484375 0.04296875 -0.04833984375 0.08056640625 l0.010742 0.0053711 q-0.4028320313 0.6875 -1.036621094 1.101074219 q-0.7841796875 0.5209960938 -1.643554688 0.5209960938 q-0.8486328125 0 -1.6328125 -0.5183105469 t-1.2166 -1.4502 t-0.43237 -1.9578 q0 -1.03125 0.4431152344 -1.973876953 t1.2273 -1.4502 t1.6113 -0.50757 q0.8325195313 0 1.616699219 0.5048828125 q0.5747070313 0.3706054688 0.966796875 0.9775390625 l-0.0053711 0.0053711 q0.0322265625 0.04833984375 0.05908203125 0.0966796875 q0.06982421875 0.1557617188 0.0751953125 0.3276367188 l0 0.021484 q0 0.1611328125 -0.06982421875 0.2846679688 q-0.08056640625 0.1396484375 -0.21484375 0.2094726563 q-0.0966796875 0.04833984375 -0.2094726563 0.04833984375 q-0.03759765625 0 -0.0751953125 -0.00537109375 q-0.1557617188 -0.021484375 -0.2900390625 -0.1342773438 q-0.0859375 -0.06982421875 -0.1450195313 -0.1557617188 l-0.010742 0.0053711 q-0.2578125 -0.4404296875 -0.64453125 -0.708984375 q-0.5102539063 -0.3544921875 -1.052734375 -0.3544921875 q-0.537109375 0 -1.044677734 0.3544921875 t-0.79761 1.0125 t-0.29004 1.3777 q0 0.7143554688 0.2819824219 1.366943359 t0.79224 1.0125 t1.0581 0.35986 q0.55859375 0 1.068847656 -0.3598632813 q0.4028320313 -0.2846679688 0.666015625 -0.751953125 z M126.4519225328948 7.20800625 q-0.171875 -0.1987304688 -0.3813476563 -0.34375 q-0.5102539063 -0.3544921875 -1.052734375 -0.3544921875 q-0.537109375 0 -1.044677734 0.3544921875 t-0.79761 1.0125 t-0.29004 1.3777 q0 0.666015625 0.2470703125 1.278320313 z M126.7634225328948 10.89260625 q0.05908203125 -0.0859375 0.1450195313 -0.1557617188 q0.1396484375 -0.1127929688 0.3061523438 -0.1396484375 q0.04296875 -0.00537109375 0.0859375 -0.00537109375 q0.1127929688 0 0.21484375 0.0537109375 q0.1450195313 0.06982421875 0.2255859375 0.21484375 q0.0751953125 0.1342773438 0.0751953125 0.3061523438 l0 0.021484 q-0.00537109375 0.1879882813 -0.08056640625 0.3491210938 q-0.021484375 0.04296875 -0.04833984375 0.08056640625 l0.010742 0.0053711 q-0.4028320313 0.6875 -1.036621094 1.101074219 q-0.7841796875 0.5209960938 -1.643554688 0.5209960938 q-0.8486328125 0 -1.6328125 -0.5183105469 t-1.2166 -1.4502 t-0.43237 -1.9578 q0 -1.03125 0.4431152344 -1.973876953 t1.2273 -1.4502 t1.6113 -0.50757 q0.8325195313 0 1.616699219 0.5048828125 q0.5747070313 0.3706054688 0.966796875 0.9775390625 l-0.0053711 0.0053711 q0.0322265625 0.04833984375 0.05908203125 0.0966796875 q0.06982421875 0.1557617188 0.0751953125 0.3276367188 l0 0.021484 q0 0.1611328125 -0.06982421875 0.2846679688 q-0.04833984375 0.08056640625 -0.1127929688 0.1396484375 l-3.7544 3.7598 q0.08056640625 0.06982421875 0.1665039063 0.12890625 q0.5102539063 0.3598632813 1.058105469 0.3598632813 q0.55859375 0 1.068847656 -0.3598632813 q0.4028320313 -0.2846679688 0.666015625 -0.751953125 z M131.24735499588823 12.48779625 q0 0.1772460938 -0.0751953125 0.34375 t-0.21484 0.2605 t-0.29004 0.093994 t-0.28735 -0.091309 t-0.21216 -0.25781 t-0.075195 -0.34912 l0 -6.3003 q0 -0.1826171875 0.0751953125 -0.3491210938 t0.21216 -0.25781 t0.28735 -0.091309 l2.3364 0 q0.7465820313 0.00537109375 1.428710938 0.365234375 q0.6821289063 0.3706054688 1.063476563 1.036621094 q0.0107421875 0.021484375 0.021484375 0.03759765625 l-0.0053711 0 q0.021484375 0.0322265625 0.03759765625 0.06982421875 q0.0751953125 0.1611328125 0.08056640625 0.34375 l0 0.010742 q0 0.1772460938 -0.08056640625 0.3115234375 q-0.0859375 0.1450195313 -0.2255859375 0.2094726563 q-0.1020507813 0.04833984375 -0.21484375 0.04833984375 q-0.04296875 0 -0.0859375 -0.0107421875 q-0.1611328125 -0.021484375 -0.30078125 -0.1396484375 t-0.22021 -0.28467 q-0.0107421875 -0.021484375 -0.01611328125 -0.04296875 q-0.2309570313 -0.3759765625 -0.6337890625 -0.5854492188 q-0.4135742188 -0.21484375 -0.8647460938 -0.21484375 q-0.4565429688 0 -0.8728027344 0.2202148438 t-0.64185 0.6123 t-0.22559 0.80566 l0 4.2056 z  M142.72336132812512 12.48779625 q0 0.1772460938 -0.0751953125 0.34375 t-0.21484 0.2605 t-0.29004 0.093994 t-0.28735 -0.091309 t-0.21216 -0.25781 t-0.075195 -0.34912 l0 -5.5752 l-0.010742 0 q0 -0.7036132813 0.3732910156 -1.369628906 t1.0688 -1.0447 t1.4529 -0.37866 t1.4421 0.36792 t1.0662 1.0339 l0.016113 0.032227 q0.021484375 0.03759765625 0.03759765625 0.0751953125 q0.0751953125 0.1611328125 0.08056640625 0.34375 l0 0.010742 q0 0.1772460938 -0.0859375 0.3115234375 q-0.0859375 0.1450195313 -0.2202148438 0.2094726563 q-0.1020507813 0.04833984375 -0.21484375 0.04833984375 q-0.04296875 0 -0.0859375 -0.0107421875 q-0.1611328125 -0.021484375 -0.3034667969 -0.1396484375 t-0.21753 -0.28467 q-0.0107421875 -0.021484375 -0.01611328125 -0.04296875 q-0.2309570313 -0.3759765625 -0.6337890625 -0.5854492188 q-0.4135742188 -0.21484375 -0.8647460938 -0.21484375 q-0.4565429688 0 -0.8728027344 0.2202148438 t-0.64185 0.6123 q-0.21484375 0.3759765625 -0.2255859375 0.7734375 l0.010742 0 l0 1.4019 l1.9336 0 q0.171875 0 0.3383789063 0.0751953125 t0.2605 0.21484 t0.093994 0.29004 t-0.091309 0.28735 t-0.25781 0.21216 t-0.34375 0.075195 l-1.9336 0 l0 3.0508 z M150.44604222861855 5.1348062500000005 q-0.0751953125 0.1665039063 -0.2121582031 0.2604980469 t-0.29272 0.093994 q-0.150390625 0 -0.2873535156 -0.09130859375 t-0.21216 -0.25781 t-0.075195 -0.34912 t0.075195 -0.34912 t0.21216 -0.25781 t0.28735 -0.091309 q0.1557617188 0 0.2927246094 0.09399414063 t0.21216 0.2605 t0.075195 0.34375 t-0.075195 0.34375 z M150.52124222861855 12.48779625 q0 0.1772460938 -0.0751953125 0.34375 t-0.21484 0.2605 t-0.29004 0.093994 t-0.28735 -0.091309 t-0.21216 -0.25781 t-0.075195 -0.34912 l0 -5.2153 q0.00537109375 -0.171875 0.0751953125 -0.3276367188 q0.0751953125 -0.1665039063 0.2121582031 -0.2578125 t0.28735 -0.091309 t0.29004 0.093994 t0.21484 0.2605 q0.06982421875 0.1557617188 0.0751953125 0.322265625 l0 5.2153 z M153.947010629112 12.48779625 q0 0.1772460938 -0.0751953125 0.34375 t-0.21484 0.2605 t-0.29004 0.093994 t-0.28735 -0.091309 t-0.21216 -0.25781 t-0.075195 -0.34912 l0 -6.3003 q0 -0.1826171875 0.0751953125 -0.3491210938 t0.21216 -0.25781 t0.28735 -0.091309 l2.3364 0 q0.7465820313 0.00537109375 1.428710938 0.365234375 q0.6821289063 0.3706054688 1.063476563 1.036621094 q0.0107421875 0.021484375 0.021484375 0.03759765625 l-0.0053711 0 q0.021484375 0.0322265625 0.03759765625 0.06982421875 q0.0751953125 0.1611328125 0.08056640625 0.34375 l0 0.010742 q0 0.1772460938 -0.08056640625 0.3115234375 q-0.0859375 0.1450195313 -0.2255859375 0.2094726563 q-0.1020507813 0.04833984375 -0.21484375 0.04833984375 q-0.04296875 0 -0.0859375 -0.0107421875 q-0.1611328125 -0.021484375 -0.30078125 -0.1396484375 t-0.22021 -0.28467 q-0.0107421875 -0.021484375 -0.01611328125 -0.04296875 q-0.2309570313 -0.3759765625 -0.6337890625 -0.5854492188 q-0.4135742188 -0.21484375 -0.8647460938 -0.21484375 q-0.4565429688 0 -0.8728027344 0.2202148438 t-0.64185 0.6123 t-0.22559 0.80566 l0 4.2056 z M160.65450252960542 11.45120625 q-0.04296875 -0.1235351563 -0.04833984375 -0.2631835938 l0 -0.021484 q0 -0.1772460938 0.0751953125 -0.3115234375 q0.08056640625 -0.1450195313 0.2309570313 -0.21484375 q0.1020507813 -0.0537109375 0.21484375 -0.0537109375 q0.04296875 0 0.0859375 0.00537109375 q0.1665039063 0.02685546875 0.3115234375 0.1423339844 t0.22559 0.29272 q0.021484375 0.04833984375 0.03759765625 0.1020507813 l0.0053711 0 q0.04833984375 0.1879882813 0.1987304688 0.365234375 q0.2255859375 0.2739257813 0.6284179688 0.4216308594 t0.84863 0.14771 t0.854 -0.15308 t0.62842 -0.42432 t0.22021 -0.55591 q0 -0.2900390625 -0.2202148438 -0.55859375 t-0.62842 -0.42432 t-0.854 -0.15576 l-0.059082 0 q-0.6499023438 -0.0107421875 -1.240722656 -0.2900390625 q-0.6176757813 -0.2846679688 -0.9641113281 -0.8056640625 t-0.34644 -1.0957 q0 -0.5639648438 0.3464355469 -1.087646484 t0.96411 -0.81104 t1.2998 -0.28735 t1.3079 0.29541 t0.96411 0.81641 q0.1396484375 0.2255859375 0.2202148438 0.451171875 q0.05908203125 0.1557617188 0.064453125 0.3276367188 l0 0.021484 q0 0.171875 -0.0751953125 0.3061523438 q-0.08056640625 0.1450195313 -0.2255859375 0.2202148438 q-0.1020507813 0.04833984375 -0.2202148438 0.04833984375 q-0.03759765625 0 -0.08056640625 -0.00537109375 q-0.1665039063 -0.021484375 -0.3061523438 -0.1396484375 t-0.22021 -0.28467 q-0.0322265625 -0.06982421875 -0.0537109375 -0.1450195313 q-0.04296875 -0.1342773438 -0.1396484375 -0.2631835938 q-0.1879882813 -0.2470703125 -0.5263671875 -0.3920898438 t-0.70898 -0.14502 t-0.7063 0.13965 t-0.52368 0.3894 t-0.18799 0.52368 q0 0.2685546875 0.1879882813 0.5209960938 t0.52368 0.3894 t0.7063 0.13696 l0.016113 0 q0.7465820313 0.00537109375 1.434082031 0.3061523438 q0.6928710938 0.3115234375 1.066162109 0.8620605469 t0.37329 1.1306 q0 0.5854492188 -0.3732910156 1.133300781 t-1.0662 0.86206 t-1.4502 0.31421 t-1.4421 -0.30078 t-1.0662 -0.854 q-0.21484375 -0.3061523438 -0.3115234375 -0.6284179688 l0.0053711 0 z M169.78438727384886 5.48930625 l1.7563 0 l0 0.0053711 q0.1772460938 0 0.34375 0.0751953125 t0.25781 0.21216 t0.091309 0.28735 t-0.093994 0.29004 t-0.2605 0.21484 t-0.34375 0.075195 q-0.04833984375 0 -0.09130859375 -0.00537109375 l-1.6597 0 l0 3.749 q0 0.4296875 0.2282714844 0.8190917969 t0.64185 0.60425 t0.86475 0.21484 l0.032227 0 q0.451171875 0 0.8647460938 -0.21484375 t0.64185 -0.60425 t0.22827 -0.81909 l0 -0.069824 q0 -0.1826171875 0.0751953125 -0.3491210938 t0.21216 -0.25781 t0.28735 -0.091309 t0.29004 0.093994 t0.21484 0.2605 t0.075195 0.34375 l0 0.10205 q-0.0107421875 0.708984375 -0.3813476563 1.358886719 q-0.3813476563 0.666015625 -1.063476563 1.03125 t-1.4287 0.37061 l-0.04834 0 q-0.7573242188 0 -1.442138672 -0.3679199219 t-1.0662 -1.0339 q-0.3706054688 -0.6499023438 -0.3813476563 -1.358886719 l0 -5.6343 q0 -0.1772460938 0.0751953125 -0.34375 t0.21484 -0.2605 t0.29004 -0.093994 t0.28735 0.091309 t0.21216 0.25781 t0.075195 0.34912 l0 0.69824 z"/></g><g id="SvgjsG1010" transform="translate(103.83668734595292, 0) scale(2.7633447284699653)" rel="inversefill" name="monogram_container" xmlns:name="monogram_container_inversefill" fill="#fff">   <title>assets</title>   <path d="M292.48,56.58c0,12-8.18,21.71-18.27,21.71s-18.27-9.72-18.27-21.71,8.18-28.16,18.27-28.16S292.48,44.59,292.48,56.58Z" transform="translate(-255.95 -28.43)"/> </g><defs id="SvgjsDefs1002"/><g id="SvgjsG1011" rel="symbolfill" name="monogram" xmlns:name="monogram_symbolfill" fill="#7ACCBE" transform="translate(100.00798572467681, -31.479322505950694)"><path d="M19.04 60.86 q-0.51 0 -0.51 -0.51 l-1.53 -20.57 q0 -0.34 0.34 -0.34 q0.51 0 0.51 0.34 l1.53 20.57 q0 0.51 -0.34 0.51 z M18.19 79.22 q-0.34 0 -0.34 -0.34 l0.68 -18.53 q0 -0.34 0.51 -0.34 q0.34 0 0.34 0.34 l-0.68 18.53 q0 0.34 -0.51 0.34 z M31.62 40.80000000000001 l-14.11 -0.51 q-0.51 0 -0.51 -0.51 q0 -0.34 0.51 -0.34 l14.11 0.51 q0.34 0 0.34 0.34 q0 0.51 -0.34 0.51 z M28.05 49.64 l-0.17 0 q-0.34 -0.17 -0.34 -0.68 l3.57 -8.84 q0.34 -0.34 0.68 -0.17 q0.17 0 0.17 0.51 l-3.57 8.84 q0 0.34 -0.34 0.34 z M19.04 60.86 q-0.17 0 -0.34 -0.17 q-0.34 -0.17 0 -0.51 l9.01 -11.22 q0.17 -0.17 0.51 -0.17 q0.34 0.51 0.17 0.68 l-9.01 11.22 z M28.05 49.64 q-0.17 0 -0.34 -0.17 l-10.54 -9.35 q-0.17 -0.17 0 -0.68 q0.17 -0.17 0.51 0 l10.54 9.35 q0.17 0.17 0.17 0.68 z M39.1 52.19 l-0.17 0 l-11.05 -2.55 q-0.34 -0.34 -0.17 -0.51 q0 -0.34 0.51 -0.34 l11.05 2.55 q0.68 0 0.17 0.51 q0 0.34 -0.34 0.34 z M39.1 52.19 q-0.34 0 -0.34 -0.17 l-7.48 -11.39 q-0.17 -0.51 0 -0.68 t0.68 0.17 l7.48 11.39 q0.17 0.34 -0.17 0.68 l-0.17 0 z M31.62 40.80000000000001 q-0.51 0 -0.51 -0.51 q0 -0.34 0.51 -0.34 l16.83 -0.34 l0.17 0 q0.34 0 0.34 0.51 q0 0.17 -0.34 0.51 z M39.1 52.19 q-0.17 0 -0.34 -0.17 q-0.51 0 0 -0.51 l9.52 -11.73 q0 -0.51 0.51 0 q0.17 0.34 0 0.51 l-9.35 11.73 q-0.17 0.17 -0.34 0.17 z M48.45 56.44 l-0.17 -0.17 l-9.35 -4.08 q-0.34 -0.34 -0.17 -0.51 q0 -0.34 0.51 -0.34 l9.52 4.25 q0.17 0 0.17 0.51 q-0.34 0.34 -0.51 0.34 z M48.45 56.44 q-0.34 0 -0.34 -0.51 l0 -15.81 q0 -0.51 0.51 -0.51 q0.34 0 0.34 0.51 l0 15.81 q0 0.51 -0.51 0.51 z M56.44 46.41 q-0.17 0 -0.17 -0.085 t-0.17 -0.085 l-7.82 -5.78 q-0.17 -0.17 0 -0.68 q0 -0.51 0.51 0 l7.82 5.78 q0.17 0.17 0.17 0.68 z M48.45 56.44 l-0.17 -0.17 q-0.34 -0.17 0 -0.51 l7.82 -10.03 q0.17 -0.51 0.51 -0.17 q0.17 0.17 0.17 0.68 l-7.99 10.03 q-0.17 0.17 -0.34 0.17 z M56.44 46.41 q-0.17 0 -0.51 -0.34 q0 -0.51 0.34 -0.51 l16.49 -5.44 q0.34 -0.17 0.68 0.17 q0 0.51 -0.34 0.51 l-16.66 5.44 l0 0.17 z M72.93 40.80000000000001 l-24.48 -0.34 q-0.34 0 -0.34 -0.34 q0 -0.51 0.51 -0.51 l24.31 0.34 q0.51 0 0.51 0.51 q0 0.34 -0.51 0.34 z M72.93 40.80000000000001 q-0.51 0 -0.51 -0.34 q0 -0.51 0.51 -0.51 l17.85 0 q0.34 0 0.34 0.51 q0 0.34 -0.34 0.34 l-17.85 0 z M90.78 53.209999999999994 q-0.51 0 -0.51 -0.51 l0 -12.24 q0 -0.51 0.51 -0.51 q0.34 0 0.34 0.51 l0 12.24 q0 0.51 -0.34 0.51 z M90.78 64.94 q-0.51 0 -0.51 -0.51 l0 -11.73 q0 -0.34 0.51 -0.34 q0.34 0 0.34 0.34 l0 11.73 q0 0.51 -0.34 0.51 z M77.35 65.45 q-0.51 0 -0.51 -0.51 q0 -0.34 0.51 -0.34 l13.43 -0.51 q0.34 0 0.34 0.34 q0 0.51 -0.34 0.51 z M64.94 65.45 q-0.51 0 -0.51 -0.51 q0 -0.34 0.51 -0.34 l12.41 0 q0.34 0 0.34 0.34 q0 0.51 -0.34 0.51 l-12.41 0 z M45.22 65.45 q-0.51 0 -0.51 -0.34 q0 -0.51 0.51 -0.51 l19.72 0 q0.34 0 0.34 0.51 q0 0.34 -0.34 0.34 l-19.72 0 z M46.92 79.05 q-0.51 0 -0.51 -0.34 l-1.53 -13.6 q-0.17 -0.17 0.34 -0.51 q0.17 0 0.51 0.51 l1.53 13.43 q0 0.51 -0.34 0.51 z M43.86 92.99 l-0.17 0 q-0.34 0 -0.34 -0.51 l3.06 -13.94 q0 -0.34 0.51 -0.34 q0.34 0 0.34 0.51 l-3.06 13.94 q0 0.34 -0.34 0.34 z M45.22 65.45 l-0.17 0 q-0.68 0 -0.17 -0.51 l3.23 -9.18 q0.34 -0.34 0.51 -0.17 q0.34 0 0.34 0.51 l-3.4 9.18 q0 0.17 -0.34 0.17 z M45.22 65.45 q-0.34 0 -0.34 -0.17 l-6.12 -13.26 q-0.17 -0.34 0.17 -0.68 q0.51 0 0.51 0.34 l6.12 13.26 q0.51 0.51 -0.17 0.51 l-0.17 0 z M45.22 65.45 l-0.34 0 l-17.17 -15.98 q-0.34 -0.17 0 -0.51 q0.17 -0.17 0.51 0 l17.34 15.81 q0.34 0.34 0 0.68 l-0.34 0 z M32.64 78.03 q-0.34 0 -0.34 -0.17 q-0.34 -0.34 0 -0.68 l12.58 -12.41 q0.34 -0.34 0.68 0 t0 0.68 l-12.75 12.41 z M46.92 79.05 l-0.17 0 l-14.28 -1.02 q-0.34 0 -0.34 -0.51 q0 -0.34 0.51 -0.34 l14.28 1.02 q0.34 0 0.34 0.51 q0 0.34 -0.34 0.34 z M43.86 92.99 q-0.34 0 -0.34 -0.17 l-11.22 -14.96 q-0.34 -0.34 0 -0.68 q0.17 -0.17 0.68 0.17 l11.22 14.96 q0.17 0.34 -0.17 0.68 l-0.17 0 z M18.19 79.22 q-0.34 0 -0.34 -0.34 q0 -0.51 0.34 -0.51 l14.28 -1.19 q0.51 0 0.51 0.34 q0 0.51 -0.34 0.51 z M71.74 53.209999999999994 l-0.17 0 l-15.3 -6.97 q-0.34 0 -0.34 -0.51 q0.34 -0.34 0.68 -0.17 l15.3 6.8 q0.17 0.17 0.17 0.51 t-0.34 0.34 z M71.57 53.209999999999994 q-0.34 -0.34 -0.34 -0.51 l1.36 -12.24 q0 -0.51 0.34 -0.51 q0.51 0.34 0.51 0.51 l-1.36 12.24 q0 0.51 -0.51 0.51 z M61.03 61.370000000000005 l-0.34 -0.17 q-0.34 -0.34 0 -0.68 l10.71 -8.16 q0.51 -0.51 0.51 0.17 q0.17 0.34 0 0.51 l-10.71 8.16 z M61.03 61.370000000000005 q-0.51 0 -0.51 -0.34 l-4.59 -14.96 q0 -0.51 0.34 -0.51 q0.51 -0.51 0.51 0.17 l4.59 15.13 q0 0.34 -0.34 0.51 z M61.03 61.370000000000005 l-0.17 0 l-12.41 -5.1 q-0.34 0 -0.34 -0.51 q0.34 -0.34 0.51 -0.17 l12.41 4.93 q0.34 0 0.34 0.51 z M45.22 65.45 q-0.34 0 -0.34 -0.17 q-0.17 -0.34 0.17 -0.68 l15.81 -4.08 q0.51 0 0.51 0.34 t-0.34 0.51 l-15.64 4.08 l-0.17 0 z M77.35 65.45 l-0.17 0 l-16.32 -4.08 q-0.34 -0.34 -0.34 -0.51 q0 -0.34 0.51 -0.34 l16.32 4.08 q0.51 0 0.34 0.51 q0 0.34 -0.34 0.34 z M77.35 65.45 q-0.34 0 -0.34 -0.34 l-5.78 -12.24 q0 -0.34 0.34 -0.51 q0.17 -0.17 0.51 0.17 l5.61 12.24 q0.51 0.51 -0.17 0.51 z M71.74 53.209999999999994 l-0.34 -0.17 q-0.34 -0.34 0 -0.68 l19.21 -12.41 q0.34 0 0.51 0.17 q0.17 0.34 -0.17 0.68 l-19.04 12.24 z M84.66 56.44 q-0.17 0 -0.17 -0.17 l-12.92 -3.06 q-0.34 -0.34 -0.34 -0.51 q0.17 -0.34 0.51 -0.34 l12.92 3.23 q0.51 0 0.34 0.51 q0 0.34 -0.34 0.34 z M77.35 65.45 q-0.17 0 -0.17 -0.085 t-0.17 -0.085 q-0.34 -0.17 0 -0.51 l7.31 -9.18 q0.17 -0.17 0.51 0 q0.34 0.51 0.17 0.68 l-7.31 9.01 q-0.17 0 -0.17 0.085 t-0.17 0.085 z M84.66 56.44 l-0.17 -0.17 q-0.34 0 -0.34 -0.51 l6.29 -15.47 q0 -0.34 0.51 -0.34 q0.34 0.34 0.17 0.51 l-6.12 15.64 q0 0.34 -0.34 0.34 z M90.78 64.94 l-0.34 -0.17 l-6.12 -8.5 q-0.17 -0.51 0 -0.68 q0.34 -0.34 0.68 0.17 l6.12 8.5 q0.51 0.51 -0.17 0.51 z M18.53 97.58 q-0.34 0 -0.34 -0.51 l-0.34 -18.19 q0 -0.51 0.34 -0.51 q0.51 0 0.51 0.51 l0.34 18.19 q0 0.51 -0.51 0.51 z M18.53 97.58 l-0.17 -0.17 q-0.17 -0.17 -0.17 -0.51 l9.35 -11.56 q0.17 -0.17 0.51 0 q0.17 0.17 0.17 0.51 l-9.35 11.56 q-0.17 0.17 -0.34 0.17 z M27.88 86.02 l-0.34 0 l-9.52 -6.8 q-0.51 -0.34 -0.17 -0.68 q0.17 -0.17 0.68 0 l9.52 6.8 q0.17 0.17 0.17 0.51 z M27.71 86.19 q0 -0.17 -0.17 -0.17 t-0.17 -0.51 l4.76 -8.16 q0.34 -0.34 0.68 -0.17 q0.17 0.17 0.17 0.68 l-4.76 7.99 q-0.34 0.34 -0.51 0.34 z M43.86 92.99 l-0.17 0 l-16.15 -6.97 q-0.17 0 -0.17 -0.51 q0.34 -0.34 0.51 -0.17 l16.15 6.8 q0.34 0.34 0.17 0.68 q-0.17 0.17 -0.34 0.17 z M32.64 100.13 q-0.17 0 -0.51 -0.34 l-4.76 -13.94 q0 -0.51 0.34 -0.51 q0.17 -0.17 0.51 0.17 l4.76 13.94 q0 0.51 -0.34 0.68 z M32.64 100.13 l-0.17 0 l-13.94 -2.55 q-0.34 -0.34 -0.34 -0.51 q0 -0.51 0.51 -0.34 l13.94 2.55 q0.34 0 0.34 0.51 q0 0.34 -0.34 0.34 z M32.3 113.39 l-0.17 0 l-13.77 -15.98 q-0.34 -0.34 0 -0.68 q0.17 -0.17 0.51 0 l13.77 15.98 q0.34 0.34 0 0.68 l-0.34 0 z M32.3 113.39 q-0.34 0 -0.34 -0.34 l0.17 -13.43 q0 -0.34 0.51 -0.34 q0.34 0 0.34 0.34 l-0.17 13.43 q0 0.34 -0.51 0.34 z M32.64 100.13 q-0.34 0 -0.34 -0.34 q-0.34 -0.17 0 -0.51 l11.22 -7.14 q0.51 0 0.68 0.17 q0.17 0.34 -0.17 0.68 l-11.22 6.97 z M32.3 113.39 l-0.17 0 q-0.17 -0.17 -0.17 -0.51 l11.56 -20.57 q0 -0.17 0.51 -0.17 q0.34 0.51 0.17 0.68 l-11.39 20.4 q-0.17 0.17 -0.51 0.17 z M45.56 117.47 q-0.17 0 -0.17 -0.17 l-13.09 -3.91 q-0.34 0 -0.34 -0.51 q0 -0.68 0.51 -0.17 l13.09 3.91 q0.51 0 0.34 0.51 q0 0.34 -0.34 0.34 z M45.56 117.47 q-0.17 0 -0.17 -0.085 t-0.17 -0.085 q-0.34 -0.17 0 -0.51 l7.65 -11.56 q0 -0.51 0.51 0 q0.68 0 0.17 0.51 l-7.65 11.39 z M53.21 105.91 q-0.34 0 -0.34 -0.17 l-9.35 -12.92 q-0.51 -0.51 0 -0.51 q0.34 -0.34 0.68 0 l9.35 12.92 q0.17 0.34 -0.17 0.68 l-0.17 0 z M45.56 117.47 q-0.51 0 -0.51 -0.51 l-1.7 -24.31 q0 -0.51 0.51 -0.51 q0.34 0 0.34 0.34 l1.7 24.48 q0 0.17 -0.34 0.51 z M53.21 105.91 l-0.17 0 q-0.34 0 -0.34 -0.51 l2.04 -13.94 q0 -0.34 0.51 -0.34 q0.34 0 0.34 0.51 l-2.04 13.94 q0 0.34 -0.34 0.34 z M43.86 92.99 q-0.51 0 -0.51 -0.34 q0 -0.51 0.51 -0.51 l11.22 -1.02 q0.51 0 0.51 0.34 q0 0.51 -0.34 0.51 z M68.68 92.99 l-13.6 -1.02 q-0.34 0 -0.34 -0.51 q0 -0.34 0.51 -0.34 l13.6 1.02 q0.34 0 0.34 0.51 q0 0.34 -0.51 0.34 z M53.21 105.91 q-0.34 0 -0.34 -0.17 q-0.34 -0.17 0 -0.51 l15.64 -12.92 q0.17 -0.17 0.51 0 q0.34 0.34 0 0.68 l-15.64 12.92 l-0.17 0 z M61.03 117.13 l-0.34 -0.17 l-7.82 -11.22 q-0.51 -0.51 0 -0.51 q0.34 -0.34 0.68 0 l7.82 11.22 q0 0.51 -0.17 0.51 z M45.56 117.3 q-0.51 0 -0.51 -0.34 q0 -0.51 0.51 -0.51 l15.47 -0.17 q0.34 0 0.34 0.34 t-0.34 0.34 z M61.03 117.13 l-0.34 -0.17 q-0.34 -0.34 0 -0.68 l7.82 -5.78 q0.51 -0.51 0.51 0.17 q0.17 0.34 0 0.51 l-7.82 5.78 z M68.68 111.35 l-15.64 -5.44 q-0.34 0 -0.34 -0.51 q0.34 -0.34 0.68 -0.34 l15.47 5.44 q0.34 0 0.34 0.51 q-0.34 0.34 -0.51 0.34 z M68.68 111.35 l-0.17 -0.17 q-0.34 -0.34 0 -0.68 l11.73 -11.22 q0.34 -0.34 0.68 0 t0 0.68 l-11.9 11.22 q-0.17 0.17 -0.34 0.17 z M80.58 99.96 l-0.17 0 l-11.9 -6.97 q-0.17 -0.17 -0.17 -0.68 q0.34 -0.34 0.68 0 l11.73 6.97 q0.51 0.17 0.17 0.51 q0 0.17 -0.34 0.17 z M80.58 99.96 q-0.34 0 -0.34 -0.34 l0.51 -8.5 q0 -0.34 0.51 -0.34 q0.34 0 0.34 0.51 l-0.51 8.33 q0 0.34 -0.51 0.34 z M68.68 92.99 q-0.34 0 -0.34 -0.34 q0 -0.51 0.34 -0.51 l12.58 -1.36 q0.34 0 0.34 0.34 q0 0.51 -0.34 0.51 l-12.41 1.36 l-0.17 0 z M90.78 91.97 l-9.52 -0.34 q-0.51 0 -0.51 -0.51 q0 -0.34 0.51 -0.34 l9.52 0.34 q0.34 0 0.34 0.51 q0 0.34 -0.34 0.34 z M80.58 99.96 l-0.34 0 q-0.17 -0.34 0.17 -0.68 l10.03 -7.99 q0.34 -0.34 0.68 0 q0.17 0.34 -0.17 0.68 l-10.03 7.99 l-0.34 0 z M90.61 110.67 q-0.34 -0.34 -0.34 -0.51 l0 -18.53 q0 -0.51 0.51 -0.51 q0.34 0 0.34 0.51 l0 18.53 q0 0.51 -0.51 0.51 z M90.61 110.67 l-0.17 -0.17 l-10.2 -10.54 q-0.34 -0.34 0 -0.68 t0.68 0 l10.03 10.54 q0.34 0.34 0 0.68 q-0.17 0.17 -0.34 0.17 z M80.58 118.66 l-0.17 -0.17 l-11.9 -7.31 q-0.17 0 -0.17 -0.51 q0.34 -0.34 0.68 -0.17 l11.9 7.31 q0.17 0.34 0 0.51 q0 0.34 -0.34 0.34 z M80.58 118.49000000000001 q-0.34 0 -0.34 -0.34 l0 -18.53 q0 -0.51 0.34 -0.51 q0.51 0 0.51 0.51 l0 18.53 q0 0.34 -0.51 0.34 z M80.58 118.66 q-0.34 0 -0.34 -0.51 q0 -0.34 0.34 -0.34 l10.2 -1.19 q0.34 -0.34 0.34 0.34 q0 0.17 -0.34 0.51 l-10.03 1.19 l-0.17 0 z M90.78 117.3 q-0.51 0 -0.51 -0.34 l0 -6.8 q0 -0.34 0.34 -0.34 q0.51 0 0.51 0.34 l0 6.8 q0 0.34 -0.34 0.34 z M90.78 117.47 q-0.34 0 -0.34 -0.34 l-10.2 -17.34 q-0.17 -0.17 0.17 -0.51 q0.51 -0.51 0.51 0.17 l10.2 17.34 q0.51 0.51 -0.17 0.51 z M80.58 118.66 l-19.72 -1.53 q-0.34 0 -0.34 -0.51 q0 -0.34 0.51 -0.34 l19.72 1.53 q0.34 0 0.34 0.34 q0 0.51 -0.51 0.51 z M53.21 105.91 q-0.17 0 -0.51 -0.34 q0 -0.17 0.34 -0.51 l15.64 -4.93 q0.17 -0.17 0.51 0.17 q0 0.51 -0.34 0.51 l-15.47 5.1 l-0.17 0 z M68.68 100.81 q-0.34 0 -0.34 -0.34 q0 -0.17 0.34 -0.51 l11.9 -0.68 q0.51 -0.51 0.51 0.34 q0 0.34 -0.51 0.34 l-11.73 0.85 l-0.17 0 z M68.68 100.81 q-0.34 0 -0.34 -0.34 l0 -7.82 q0 -0.51 0.34 -0.51 q0.51 0 0.51 0.51 l0 7.82 q0 0.34 -0.51 0.34 z M68.68 111.35 q-0.34 0 -0.34 -0.51 l0 -10.37 q0 -0.51 0.34 -0.51 q0.51 0 0.51 0.51 l0 10.37 q0 0.51 -0.51 0.51 z M19.04 114.07 q-0.51 0 -0.51 -0.51 l-0.34 -16.49 q0 -0.34 0.34 -0.34 q0.51 0 0.51 0.34 l0.34 16.49 q0 0.17 -0.34 0.51 z M19.04 114.07 q-0.51 0 -0.51 -0.51 q0 -0.34 0.34 -0.34 l13.43 -0.68 q0.51 0 0.51 0.51 q0 0.34 -0.34 0.34 z M24.48 125.12 l-0.17 0 q-0.51 -0.34 -0.17 -0.68 l7.82 -11.56 q0.34 -0.51 0.68 -0.17 q0.17 0.17 0.17 0.51 l-7.99 11.73 q0 0.17 -0.34 0.17 z M24.48 125.12 q-0.34 0 -0.34 -0.17 l-5.61 -11.22 q0 -0.51 0.17 -0.51 q0.34 -0.17 0.68 0.17 l5.44 11.22 q0.17 0.17 -0.17 0.51 l-0.17 0 z M18.87 135.82999999999998 q-0.34 -0.34 -0.34 -0.51 l0 -21.76 q0 -0.34 0.51 -0.34 q0.34 0 0.34 0.34 l0 21.76 q0 0.51 -0.51 0.51 z M18.87 135.82999999999998 q0 -0.17 -0.17 -0.17 t-0.17 -0.51 l5.61 -10.54 q0.17 -0.51 0.51 -0.17 q0.68 0 0.17 0.51 l-5.44 10.54 q-0.34 0.34 -0.51 0.34 z M28.05 136.68 l-0.17 0 q-0.34 0 -0.34 -0.51 l4.42 -23.12 q0 -0.85 0.51 -0.34 q0.34 0 0.34 0.34 l-4.42 23.29 q0 0.34 -0.34 0.34 z M28.05 136.68 q-0.17 0 -0.51 -0.34 l-3.4 -11.56 q-0.17 -0.17 0.17 -0.51 q0.34 0 0.68 0.34 l3.4 11.56 q0.17 0.17 -0.17 0.51 l-0.17 0 z M28.05 136.68 l-9.18 -0.85 q-0.34 -0.34 -0.34 -0.51 q0 -0.51 0.51 -0.34 l9.01 0.85 q0.34 0 0.34 0.51 q0 0.34 -0.34 0.34 z M23.12 148.07 q-0.34 0 -0.34 -0.17 l-4.25 -12.41 q0 -0.51 0.34 -0.51 q0.17 -0.17 0.51 0.17 l4.25 12.41 q0 0.51 -0.34 0.51 l-0.17 0 z M23.12 148.07 l-0.17 0 q-0.68 0 -0.17 -0.51 l4.76 -11.56 q0.34 -0.34 0.68 -0.17 q0.34 0.34 0.17 0.51 l-4.93 11.56 q0 0.17 -0.34 0.17 z M18.19 163.71 q-0.34 0 -0.34 -0.34 l0.68 -28.05 q0 -0.51 0.51 -0.34 q0.34 0 0.34 0.34 l-0.68 28.05 q0 0.34 -0.51 0.34 z M18.19 163.71 l-0.17 0 q-0.68 0 -0.17 -0.51 l4.93 -15.64 q0 -0.34 0.51 -0.34 q0.34 0.34 0.34 0.68 l-5.1 15.47 q0 0.34 -0.34 0.34 z M36.55 151.98 l-13.6 -3.91 q-0.68 0 -0.17 -0.51 q0 -0.34 0.51 -0.34 l13.43 4.08 q0.34 0 0.34 0.51 q-0.17 0.17 -0.51 0.17 z M36.55 151.98 q-0.17 0 -0.34 -0.17 l-8.5 -15.3 q-0.17 -0.51 0.17 -0.68 q0.17 -0.17 0.51 0.17 l8.5 15.47 q0.17 0.34 0 0.51 l-0.34 0 z M28.05 136.68 q-0.17 0 -0.51 -0.34 q0 -0.51 0.34 -0.51 l14.28 -2.21 q0.51 0 0.51 0.34 q0 0.51 -0.34 0.51 z M42.16 134.47 q-0.17 -0.17 -0.34 -0.17 l-9.86 -21.08 q0 -0.51 0.17 -0.51 q0.34 -0.17 0.68 0.17 l9.86 20.91 q0 0.51 -0.17 0.68 l-0.34 0 z M42.16 134.47 q-0.34 0 -0.34 -0.51 l3.23 -17 q0.34 -0.51 0.51 -0.34 q0.34 0 0.34 0.51 l-3.23 17 q0 0.34 -0.51 0.34 z M45.73 149.26 q-0.51 0 -0.51 -0.34 l-0.17 -31.96 q0 -0.34 0.51 -0.34 q0.34 -0.34 0.34 0.34 l0.17 31.96 q0 0.34 -0.34 0.34 z M45.73 149.26 q-0.51 0 -0.51 -0.34 l-3.4 -14.79 q0 -0.51 0.34 -0.51 q0.51 0 0.51 0.34 l3.4 14.79 q0 0.51 -0.34 0.51 z M36.55 151.98 q-0.85 0 -0.34 -0.51 l5.61 -17.51 q0 -0.34 0.51 -0.34 q0.34 0 0.34 0.51 l-5.61 17.68 q-0.17 0.17 -0.51 0.17 z M36.55 151.98 q-0.34 0 -0.34 -0.17 q0 -0.51 0.34 -0.51 l9.01 -2.89 q0.51 0 0.51 0.34 q0 0.51 -0.34 0.51 l-9.01 2.72 l-0.17 0 z M18.19 163.71 q-0.51 0 -0.51 -0.34 q0 -0.51 0.51 -0.51 l13.77 0 q0.51 0 0.51 0.51 q0 0.34 -0.51 0.34 l-13.77 0 z M31.96 163.71 l-0.17 0 q-0.34 -0.34 -0.17 -0.51 l4.59 -11.73 q0 -0.68 0.51 -0.17 q0.34 0 0.34 0.51 l-4.59 11.56 q-0.34 0.34 -0.51 0.34 z M31.96 163.71 q-0.17 0 -0.34 -0.17 l-8.84 -15.64 q-0.51 -0.51 0.17 -0.51 q0.51 -0.51 0.51 0.17 l8.84 15.47 q0.17 0.51 -0.17 0.68 l-0.17 0 z M31.96 163.71 q-0.17 0 -0.17 -0.17 q-0.34 -0.34 -0.17 -0.51 l13.77 -14.45 q0.17 -0.17 0.51 0 q0.34 0.34 0 0.68 l-13.6 14.28 q0 0.17 -0.34 0.17 z M45.56 160.82 q-0.51 0 -0.51 -0.34 l0.17 -11.56 q0 -0.51 0.51 -0.51 q0.34 0 0.34 0.51 l-0.17 11.56 q0 0.34 -0.34 0.34 z M31.96 163.71 q-0.34 0 -0.34 -0.34 q0 -0.51 0.34 -0.51 l13.43 -2.89 q0.51 0 0.51 0.34 q0 0.51 -0.34 0.51 l-13.43 2.89 l-0.17 0 z M45.39 172.55 q-0.17 0 -0.34 -0.17 l-13.26 -8.67 q-0.51 -0.34 -0.17 -0.68 q0.17 -0.17 0.68 -0.17 l13.26 8.84 q0.34 0.51 0.17 0.68 q-0.17 0 -0.17 0.085 t-0.17 0.085 z M45.39 172.55 q-0.51 0 -0.51 -0.51 l0.17 -11.56 q0 -0.51 0.51 -0.51 q0.34 0 0.34 0.51 l-0.17 11.56 q0 0.51 -0.34 0.51 z M45.39 172.55 l-0.17 0 l-10.88 -2.55 q-0.34 -0.34 -0.34 -0.51 q0.34 -0.51 0.51 -0.34 l10.88 2.55 q0.34 0 0.34 0.51 q0 0.34 -0.34 0.34 z M34.51 170 q-0.17 0 -0.51 -0.34 l-2.38 -6.29 q-0.17 -0.17 0.17 -0.51 q0.51 0 0.68 0.34 l2.38 6.12 q0 0.51 -0.17 0.68 l-0.17 0 z M17.51 170.51 q-0.51 0 -0.51 -0.51 q0 -0.34 0.51 -0.34 l17 -0.51 q0.34 0 0.34 0.34 q0 0.51 -0.34 0.51 z M17.51 170.51 l-0.17 0 q-0.34 0 -0.34 -0.51 l0.85 -6.8 q0 -0.34 0.34 -0.34 q0.51 0 0.51 0.51 l-0.85 6.63 q0 0.51 -0.34 0.51 z M17.51 170.51 q-0.17 0 -0.51 -0.34 q0 -0.51 0.34 -0.51 l14.45 -6.8 q0.51 0 0.68 0.34 q0 0.34 -0.34 0.51 l-14.45 6.63 z M19.04 60.86 q-0.51 0 -0.51 -0.34 q0 -0.51 0.34 -0.51 l8.84 -2.04 q0.51 0 0.51 0.34 q0.51 0.51 -0.34 0.51 z M27.88 58.81999999999999 q-0.51 0 -0.51 -0.34 l0.17 -9.35 q0 -0.34 0.51 -0.34 q0.34 0 0.34 0.34 l-0.17 9.35 q0 0.34 -0.34 0.34 z M45.22 65.45 l-0.17 0 l-17.34 -6.63 q-0.68 0 -0.17 -0.51 q0 -0.34 0.51 -0.34 l17.34 6.8 q0.68 0 0.17 0.51 q0 0.17 -0.34 0.17 z M18.7 70.04 q-0.17 0 -0.34 -0.17 q-0.51 0 0 -0.51 l9.18 -11.22 q0.17 -0.17 0.68 0 q0.17 0.34 0 0.51 l-9.18 11.22 z M32.64 78.03 q-0.17 0 -0.34 -0.17 l-13.94 -7.82 q-0.17 -0.17 -0.17 -0.68 q0.17 -0.17 0.68 -0.17 l13.94 7.99 q0.17 0.17 0.17 0.68 z M32.64 78.03 l-0.17 0 q-0.34 0 -0.34 -0.51 l0.85 -10.71 q0.17 -0.51 0.51 -0.51 q0.51 0.34 0.34 0.51 l-0.85 10.71 q0 0.51 -0.34 0.51 z M18.7 70.04 q-0.51 0 -0.51 -0.34 q0 -0.51 0.34 -0.51 l14.79 -2.72 q0.51 -0.17 0.51 0.34 q0.34 0.34 -0.34 0.34 z M33.49 67.15 q-0.34 0 -0.34 -0.17 l-5.61 -8.33 q-0.51 -0.51 0.17 -0.51 q0.17 -0.17 0.51 0 l5.61 8.5 q0.17 0.17 -0.17 0.51 l-0.17 0 z M33.49 67.15 q-0.34 0 -0.51 -0.34 q0 -0.17 0.51 -0.51 l11.73 -1.7 q0.34 0 0.34 0.51 q0.34 0.34 -0.34 0.34 z"/></g>
            </g>
        </svg>
    